<svg viewBox="0 0 512 512" xmlns="http://www.w3.org/2000/svg">
  <rect width="512" height="512" fill="#07101e"/>
  <ellipse cx="196" cy="154" rx="260" ry="200" fill="#122034" opacity="0.55"/>
  <circle cx="256" cy="239" r="238" fill="none" stroke="#c9a227" stroke-width="2" opacity="0.16"/>
  <g stroke="#d4a843" stroke-width="18" stroke-linecap="round">
    <line x1="256" y1="133" x2="256" y2="82"/>
    <line x1="331" y1="164" x2="367" y2="128"/>
    <line x1="362" y1="239" x2="413" y2="239"/>
    <line x1="331" y1="314" x2="367" y2="350"/>
    <line x1="256" y1="345" x2="256" y2="396"/>
    <line x1="181" y1="314" x2="145" y2="350"/>
    <line x1="150" y1="239" x2="99" y2="239"/>
    <line x1="181" y1="164" x2="145" y2="128"/>
  </g>
  <circle cx="256" cy="239" r="89" fill="#6a4408" opacity="0.55"/>
  <circle cx="256" cy="239" r="82" fill="#a87010"/>
  <circle cx="256" cy="239" r="73" fill="#cf9e28"/>
  <circle cx="256" cy="239" r="64" fill="#e8b840"/>
  <ellipse cx="236" cy="222" rx="22" ry="14" fill="#f8d860" opacity="0.5"/>
  <line x1="200" y1="258" x2="178" y2="244" stroke="#c9a227" stroke-width="4" stroke-linecap="round"/>
  <line x1="312" y1="258" x2="334" y2="244" stroke="#c9a227" stroke-width="4" stroke-linecap="round"/>
  <ellipse cx="225" cy="260" rx="23" ry="19" fill="#050810" stroke="#c9a227" stroke-width="5"/>
  <ellipse cx="287" cy="260" rx="23" ry="19" fill="#050810" stroke="#c9a227" stroke-width="5"/>
  <ellipse cx="219" cy="254" rx="8" ry="5" fill="white" opacity="0.13"/>
  <ellipse cx="281" cy="254" rx="8" ry="5" fill="white" opacity="0.13"/>
  <path d="M 248 258 Q 256 268 264 258" fill="none" stroke="#c9a227" stroke-width="4" stroke-linecap="round"/>
</svg>
